<svg width="40" height="40" viewBox="0 0 40 40" fill="none" xmlns="http://www.w3.org/2000/svg">
<g clip-path="url(#clip0_7493_39405)">
<rect width="40" height="40" rx="13.7632" fill="#092B44"/>
<path fill-rule="evenodd" clip-rule="evenodd" d="M20.5111 6.875C20.7034 6.875 20.8944 6.88049 21.084 6.89131V9.74169C20.895 9.72649 20.704 9.71875 20.5111 9.71875C16.6177 9.71875 13.4619 12.8746 13.4619 16.7671C13.4619 16.9602 13.4697 17.1514 13.4849 17.3406H10.6345C10.6237 17.1508 10.6182 16.9596 10.6182 16.7671C10.6182 11.3038 15.0474 6.875 20.5111 6.875Z" fill="#5DD8FF"/>
<path fill-rule="evenodd" clip-rule="evenodd" d="M21.0852 10.4583V13.302C18.8547 13.302 17.0469 15.1099 17.0469 17.3396H14.2031C14.2032 13.5391 17.2843 10.4583 21.0852 10.4583ZM21.0506 24.2211C21.0621 24.2211 21.0736 24.2212 21.0852 24.2212V24.2211H21.0506Z" fill="#5DD8FF"/>
<path fill-rule="evenodd" clip-rule="evenodd" d="M23.0934 10.4575C22.9011 10.4575 22.7101 10.463 22.5205 10.4738V13.3242C22.7095 13.309 22.9005 13.3013 23.0934 13.3013C26.9868 13.3013 30.1426 16.4571 30.1426 20.3496C30.1426 20.5427 30.1348 20.7339 30.1196 20.9231H32.97C32.9808 20.7333 32.9863 20.5421 32.9863 20.3496C32.9863 14.8864 28.5571 10.4575 23.0934 10.4575Z" fill="#5DD8FF"/>
<path fill-rule="evenodd" clip-rule="evenodd" d="M22.5203 14.043V16.8867C24.7508 16.8867 26.5585 18.6946 26.5586 20.9243H29.4023C29.4023 17.1239 26.3211 14.043 22.5203 14.043ZM22.5549 27.8058C22.5433 27.8058 22.5318 27.8059 22.5203 27.8059V27.8058H22.5549Z" fill="#5DD8FF"/>
<path fill-rule="evenodd" clip-rule="evenodd" d="M19.5094 32.9717C19.3171 32.9717 19.1261 32.9662 18.9365 32.9554L18.9365 30.105C19.1255 30.1202 19.3165 30.1279 19.5094 30.1279C23.4028 30.1279 26.5586 26.9721 26.5586 23.0796C26.5586 22.8865 26.5508 22.6953 26.5356 22.5061L29.386 22.5061C29.3968 22.6959 29.4023 22.8871 29.4023 23.0796C29.4023 28.5428 24.9731 32.9717 19.5094 32.9717Z" fill="#5DD8FF"/>
<path fill-rule="evenodd" clip-rule="evenodd" d="M25.8184 22.5056C25.8183 26.3061 22.7371 29.387 18.9363 29.387L18.9363 26.5432C21.1668 26.5432 22.9746 24.7353 22.9746 22.5056L25.8184 22.5056ZM18.9713 15.6241C18.9596 15.6241 18.948 15.6241 18.9363 15.6241L18.9176 15.6241L18.9363 15.6241L18.9363 15.6241L18.9713 15.6241Z" fill="#5DD8FF"/>
<path fill-rule="evenodd" clip-rule="evenodd" d="M16.9281 29.3865C17.1207 29.3865 17.312 29.381 17.502 29.3701L17.502 26.5197C17.3127 26.535 17.1213 26.5427 16.9281 26.5427C13.0347 26.5427 9.87891 23.3868 9.87891 19.4944C9.87891 19.3013 9.88667 19.1101 9.90191 18.9209L7.05151 18.9209C7.04066 19.1107 7.03516 19.3019 7.03516 19.4944C7.03516 24.9576 11.4644 29.3865 16.9281 29.3865Z" fill="#5DD8FF"/>
<path fill-rule="evenodd" clip-rule="evenodd" d="M17.5012 25.8032L17.5012 22.9595C15.2707 22.9595 13.4629 21.1516 13.4629 18.9219L10.6191 18.9219C10.6192 22.7223 13.7004 25.8032 17.5012 25.8032ZM17.4662 12.0404C17.4779 12.0403 17.4895 12.0403 17.5012 12.0403L17.5012 12.0404L17.4662 12.0404Z" fill="#5DD8FF"/>
</g>
<defs>
<clipPath id="clip0_7493_39405">
<rect width="40" height="40" rx="13.7632" fill="white"/>
</clipPath>
</defs>
</svg>
